<?xml version="1.0" encoding="utf-8"?>
<!-- Generator: Adobe Illustrator 26.0.2, SVG Export Plug-In . SVG Version: 6.00 Build 0)  -->
<svg version="1.1" xmlns="http://www.w3.org/2000/svg" xmlns:xlink="http://www.w3.org/1999/xlink" x="0px" y="0px"
	 viewBox="0 0 4000 4000" style="enable-background:new 0 0 4000 4000;" xml:space="preserve">
<style type="text/css">
	.st0{fill:#706D6E;}
	.st1{display:none;}
	.st2{display:inline;fill:#C02426;}
	.st3{fill:#C02426;}
</style>
<g id="Layer_1">
	<path class="st0" d="M350,1143v2540h2540V1143H350z M2642.47,3435.47H597.53V1390.53h2044.95V3435.47z"/>
</g>
<g id="old" class="st1">
	<path class="st2" d="M3938.75,272.4c-11.44-15.53-38.03-4.11-52.32,2.45c-81.11,37.23-161.97,75.01-242.41,113.68
		c-4.16,1.09-8.15,2.76-11.83,5.14c-1.13,0.73-2.26,1.46-3.39,2.19c-116.39,56.14-231.85,114.18-345.78,175.19
		c-197.2,105.59-389.88,220.06-573.45,348.03c-177.33,123.62-345.45,260.19-504.6,406.43c-157.6,144.81-306.53,298.88-448.72,458.79
		c-143,160.82-279.22,327.58-411.1,497.6c-15.77,20.33-31.49,40.71-47.15,61.13c-21.86,22.98-43.57,46.1-65.14,69.35
		c-42.69-23.4-88.05-42.05-134.05-57.78c-68.76-23.52-139.63-41.18-210.46-57.2c-74.87-16.94-150.4-31-226.35-42.15
		c-77.82-11.43-156.03-20.1-234.49-25.6c-76.22-5.34-152.65-7.78-229.06-7.28c-9.64,0.06-19.28,0.18-28.92,0.33
		c-11.06,0.18-17.05-0.52-36.16,6.41c-11.02,6.52-13.94,14.61-15.96,23.38c-2.55,11.05-2.56,23,3.15,31.88
		c-0.14,0.12,3.08,3.02,3.23,3.13l50.28,35.07c5.05,3.58,17.49,12.69,22.73,15.98c24,15.07,47.31,31.37,70.9,47.08
		c47.63,31.73,95.2,63.55,142.59,95.64c95.1,64.4,189.46,129.92,281.99,197.98c22.85,16.81,45.59,33.77,68.19,50.91
		c11.63,8.82,23.21,17.7,34.78,26.59c0.07,0.06,0.14,0.11,0.2,0.16c1.27,0.99,2.55,1.97,3.82,2.96c2.97,2.3,5.93,4.6,8.89,6.91
		c5.59,4.35,11.17,8.72,16.74,13.1c44.88,35.26,89.14,71.32,132.6,108.32c88.63,75.45,173.46,155.1,254.37,238.78
		c82.98,85.82,162.31,175.06,241.2,264.62c9.75,11.07,19.5,22.15,29.25,33.23c10.05,11.43,30.88,11.04,41.01,0
		c8.02-8.74,12.7-20.97,14.71-27.25c35.46-138.31,87.5-270.83,148.56-399.37c54.43-114.59,111.41-227.96,171.04-339.94
		c119.48-224.38,249.56-443.17,391.08-654.36c140.2-209.22,291.64-410.9,455.26-602.39c163.29-191.11,338.51-372.13,525.82-539.81
		c187.16-167.54,386.41-321.44,597.04-458.39c26.16-17.01,52.5-33.74,78.98-50.24c11.92-7.42,25.64-17.98,31.22-26.05
		C3953.12,298.03,3946.66,283.13,3938.75,272.4z"/>
</g>
<g id="Layer_2">
	<path class="st3" d="M3550.41,197.35l-0.43-0.34L1508.83,2786.26c-54.87,69.6-155.77,81.55-225.37,26.68l-865.25-682.09
		c-93.26-73.52-226.95-55.25-295.18,41.95c-61.8,88.04-44.69,210.07,40.82,277.49l1137.13,896.42
		c97.42,76.79,238.64,60.08,315.44-37.34l0,0l113.74-144.28L3870.65,449.8l-0.43-0.34c69.62-88.31,54.46-216.34-33.85-285.95
		S3620.03,109.04,3550.41,197.35z"/>
</g>
</svg>
